<svg xmlns="http://www.w3.org/2000/svg" width="100" height="100" viewBox="0 0 100 100"><rect x="0" y="0" width="5" height="5" fill="#0e0e0a" opacity="0.3"/><rect x="5" y="0" width="5" height="5" fill="#0e0e0a" opacity="0.15"/><rect x="10" y="0" width="5" height="5" fill="#0e0e0a" opacity="0.15"/><rect x="15" y="0" width="5" height="5" fill="#0e0e0a" opacity="0.15"/><rect x="25" y="0" width="5" height="5" fill="#0e0e0a" opacity="0.15"/><rect x="30" y="0" width="5" height="5" fill="#0e0e0a" opacity="0.15"/><rect x="35" y="0" width="5" height="5" fill="#0e0e0a" opacity="0.85"/><rect x="40" y="0" width="5" height="5" fill="#0e0e0a" opacity="0.15"/><rect x="60" y="0" width="5" height="5" fill="#0e0e0a" opacity="0.85"/><rect x="65" y="0" width="5" height="5" fill="#0e0e0a" opacity="0.3"/><rect x="70" y="0" width="5" height="5" fill="#0e0e0a" opacity="0.3"/><rect x="75" y="0" width="5" height="5" fill="#0e0e0a" opacity="0.3"/><rect x="0" y="5" width="5" height="5" fill="#0e0e0a" opacity="0.3"/><rect x="5" y="5" width="5" height="5" fill="#0e0e0a" opacity="0.15"/><rect x="45" y="5" width="5" height="5" fill="#0e0e0a" opacity="0.3"/><rect x="60" y="5" width="5" height="5" fill="#0e0e0a" opacity="0.55"/><rect x="80" y="5" width="5" height="5" fill="#0e0e0a" opacity="0.15"/><rect x="85" y="5" width="5" height="5" fill="#0e0e0a" opacity="0.85"/><rect x="90" y="5" width="5" height="5" fill="#0e0e0a" opacity="0.55"/><rect x="95" y="5" width="5" height="5" fill="#0e0e0a" opacity="0.85"/><rect x="0" y="10" width="5" height="5" fill="#0e0e0a" opacity="0.15"/><rect x="20" y="10" width="5" height="5" fill="#0e0e0a" opacity="0.55"/><rect x="60" y="10" width="5" height="5" fill="#0e0e0a" opacity="0.55"/><rect x="80" y="10" width="5" height="5" fill="#0e0e0a" opacity="0.85"/><rect x="90" y="10" width="5" height="5" fill="#0e0e0a" opacity="0.85"/><rect x="95" y="10" width="5" height="5" fill="#0e0e0a" opacity="0.15"/><rect x="5" y="15" width="5" height="5" fill="#0e0e0a" opacity="0.55"/><rect x="10" y="15" width="5" height="5" fill="#0e0e0a" opacity="0.3"/><rect x="15" y="15" width="5" height="5" fill="#0e0e0a" opacity="0.85"/><rect x="20" y="15" width="5" height="5" fill="#0e0e0a" opacity="0.85"/><rect x="25" y="15" width="5" height="5" fill="#0e0e0a" opacity="0.55"/><rect x="45" y="15" width="5" height="5" fill="#0e0e0a" opacity="0.85"/><rect x="60" y="15" width="5" height="5" fill="#0e0e0a" opacity="0.3"/><rect x="65" y="15" width="5" height="5" fill="#0e0e0a" opacity="0.3"/><rect x="70" y="15" width="5" height="5" fill="#0e0e0a" opacity="0.3"/><rect x="75" y="15" width="5" height="5" fill="#0e0e0a" opacity="0.3"/><rect x="80" y="15" width="5" height="5" fill="#0e0e0a" opacity="0.15"/><rect x="85" y="15" width="5" height="5" fill="#0e0e0a" opacity="0.55"/><rect x="95" y="15" width="5" height="5" fill="#0e0e0a" opacity="0.3"/><rect x="20" y="20" width="5" height="5" fill="#0e0e0a" opacity="0.85"/><rect x="25" y="20" width="5" height="5" fill="#0e0e0a" opacity="0.85"/><rect x="30" y="20" width="5" height="5" fill="#0e0e0a" opacity="0.85"/><rect x="35" y="20" width="5" height="5" fill="#0e0e0a" opacity="0.15"/><rect x="45" y="20" width="5" height="5" fill="#0e0e0a" opacity="0.15"/><rect x="50" y="20" width="5" height="5" fill="#0e0e0a" opacity="0.15"/><rect x="55" y="20" width="5" height="5" fill="#0e0e0a" opacity="0.3"/><rect x="75" y="20" width="5" height="5" fill="#0e0e0a" opacity="0.3"/><rect x="85" y="20" width="5" height="5" fill="#0e0e0a" opacity="0.55"/><rect x="5" y="25" width="5" height="5" fill="#0e0e0a" opacity="0.85"/><rect x="25" y="25" width="5" height="5" fill="#0e0e0a" opacity="0.15"/><rect x="55" y="25" width="5" height="5" fill="#0e0e0a" opacity="0.55"/><rect x="60" y="25" width="5" height="5" fill="#0e0e0a" opacity="0.15"/><rect x="70" y="25" width="5" height="5" fill="#0e0e0a" opacity="0.15"/><rect x="80" y="25" width="5" height="5" fill="#0e0e0a" opacity="0.55"/><rect x="90" y="25" width="5" height="5" fill="#0e0e0a" opacity="0.3"/><rect x="5" y="30" width="5" height="5" fill="#0e0e0a" opacity="0.3"/><rect x="25" y="30" width="5" height="5" fill="#0e0e0a" opacity="0.3"/><rect x="40" y="30" width="5" height="5" fill="#0e0e0a" opacity="0.85"/><rect x="45" y="30" width="5" height="5" fill="#0e0e0a" opacity="0.15"/><rect x="65" y="30" width="5" height="5" fill="#0e0e0a" opacity="0.55"/><rect x="70" y="30" width="5" height="5" fill="#0e0e0a" opacity="0.55"/><rect x="80" y="30" width="5" height="5" fill="#0e0e0a" opacity="0.3"/><rect x="85" y="30" width="5" height="5" fill="#0e0e0a" opacity="0.85"/><rect x="90" y="30" width="5" height="5" fill="#0e0e0a" opacity="0.3"/><rect x="10" y="35" width="5" height="5" fill="#0e0e0a" opacity="0.55"/><rect x="20" y="35" width="5" height="5" fill="#0e0e0a" opacity="0.15"/><rect x="45" y="35" width="5" height="5" fill="#0e0e0a" opacity="0.55"/><rect x="50" y="35" width="5" height="5" fill="#0e0e0a" opacity="0.85"/><rect x="65" y="35" width="5" height="5" fill="#0e0e0a" opacity="0.3"/><rect x="70" y="35" width="5" height="5" fill="#0e0e0a" opacity="0.3"/><rect x="75" y="35" width="5" height="5" fill="#0e0e0a" opacity="0.85"/><rect x="85" y="35" width="5" height="5" fill="#0e0e0a" opacity="0.85"/><rect x="95" y="35" width="5" height="5" fill="#0e0e0a" opacity="0.3"/><rect x="0" y="40" width="5" height="5" fill="#0e0e0a" opacity="0.15"/><rect x="15" y="40" width="5" height="5" fill="#0e0e0a" opacity="0.3"/><rect x="25" y="40" width="5" height="5" fill="#0e0e0a" opacity="0.55"/><rect x="30" y="40" width="5" height="5" fill="#0e0e0a" opacity="0.3"/><rect x="40" y="40" width="5" height="5" fill="#0e0e0a" opacity="0.85"/><rect x="50" y="40" width="5" height="5" fill="#0e0e0a" opacity="0.55"/><rect x="85" y="40" width="5" height="5" fill="#0e0e0a" opacity="0.3"/><rect x="95" y="40" width="5" height="5" fill="#0e0e0a" opacity="0.85"/><rect x="15" y="45" width="5" height="5" fill="#0e0e0a" opacity="0.3"/><rect x="35" y="45" width="5" height="5" fill="#0e0e0a" opacity="0.85"/><rect x="45" y="45" width="5" height="5" fill="#0e0e0a" opacity="0.15"/><rect x="50" y="45" width="5" height="5" fill="#0e0e0a" opacity="0.55"/><rect x="55" y="45" width="5" height="5" fill="#0e0e0a" opacity="0.15"/><rect x="80" y="45" width="5" height="5" fill="#0e0e0a" opacity="0.3"/><rect x="25" y="50" width="5" height="5" fill="#0e0e0a" opacity="0.3"/><rect x="35" y="50" width="5" height="5" fill="#0e0e0a" opacity="0.15"/><rect x="40" y="50" width="5" height="5" fill="#0e0e0a" opacity="0.55"/><rect x="45" y="50" width="5" height="5" fill="#0e0e0a" opacity="0.3"/><rect x="50" y="50" width="5" height="5" fill="#0e0e0a" opacity="0.3"/><rect x="70" y="50" width="5" height="5" fill="#0e0e0a" opacity="0.55"/><rect x="75" y="50" width="5" height="5" fill="#0e0e0a" opacity="0.3"/><rect x="85" y="50" width="5" height="5" fill="#0e0e0a" opacity="0.15"/><rect x="90" y="50" width="5" height="5" fill="#0e0e0a" opacity="0.85"/><rect x="95" y="50" width="5" height="5" fill="#0e0e0a" opacity="0.3"/><rect x="0" y="55" width="5" height="5" fill="#0e0e0a" opacity="0.85"/><rect x="10" y="55" width="5" height="5" fill="#0e0e0a" opacity="0.85"/><rect x="15" y="55" width="5" height="5" fill="#0e0e0a" opacity="0.55"/><rect x="20" y="55" width="5" height="5" fill="#0e0e0a" opacity="0.55"/><rect x="25" y="55" width="5" height="5" fill="#0e0e0a" opacity="0.85"/><rect x="30" y="55" width="5" height="5" fill="#0e0e0a" opacity="0.15"/><rect x="35" y="55" width="5" height="5" fill="#0e0e0a" opacity="0.55"/><rect x="45" y="55" width="5" height="5" fill="#0e0e0a" opacity="0.3"/><rect x="55" y="55" width="5" height="5" fill="#0e0e0a" opacity="0.55"/><rect x="60" y="55" width="5" height="5" fill="#0e0e0a" opacity="0.3"/><rect x="65" y="55" width="5" height="5" fill="#0e0e0a" opacity="0.3"/><rect x="90" y="55" width="5" height="5" fill="#0e0e0a" opacity="0.85"/><rect x="0" y="60" width="5" height="5" fill="#0e0e0a" opacity="0.15"/><rect x="10" y="60" width="5" height="5" fill="#0e0e0a" opacity="0.15"/><rect x="15" y="60" width="5" height="5" fill="#0e0e0a" opacity="0.15"/><rect x="30" y="60" width="5" height="5" fill="#0e0e0a" opacity="0.3"/><rect x="35" y="60" width="5" height="5" fill="#0e0e0a" opacity="0.15"/><rect x="45" y="60" width="5" height="5" fill="#0e0e0a" opacity="0.85"/><rect x="55" y="60" width="5" height="5" fill="#0e0e0a" opacity="0.3"/><rect x="60" y="60" width="5" height="5" fill="#0e0e0a" opacity="0.3"/><rect x="75" y="60" width="5" height="5" fill="#0e0e0a" opacity="0.3"/><rect x="80" y="60" width="5" height="5" fill="#0e0e0a" opacity="0.55"/><rect x="95" y="60" width="5" height="5" fill="#0e0e0a" opacity="0.85"/><rect x="5" y="65" width="5" height="5" fill="#0e0e0a" opacity="0.55"/><rect x="20" y="65" width="5" height="5" fill="#0e0e0a" opacity="0.15"/><rect x="35" y="65" width="5" height="5" fill="#0e0e0a" opacity="0.85"/><rect x="40" y="65" width="5" height="5" fill="#0e0e0a" opacity="0.85"/><rect x="45" y="65" width="5" height="5" fill="#0e0e0a" opacity="0.85"/><rect x="70" y="65" width="5" height="5" fill="#0e0e0a" opacity="0.3"/><rect x="80" y="65" width="5" height="5" fill="#0e0e0a" opacity="0.3"/><rect x="85" y="65" width="5" height="5" fill="#0e0e0a" opacity="0.55"/><rect x="0" y="70" width="5" height="5" fill="#0e0e0a" opacity="0.55"/><rect x="5" y="70" width="5" height="5" fill="#0e0e0a" opacity="0.15"/><rect x="10" y="70" width="5" height="5" fill="#0e0e0a" opacity="0.85"/><rect x="25" y="70" width="5" height="5" fill="#0e0e0a" opacity="0.3"/><rect x="35" y="70" width="5" height="5" fill="#0e0e0a" opacity="0.3"/><rect x="40" y="70" width="5" height="5" fill="#0e0e0a" opacity="0.85"/><rect x="45" y="70" width="5" height="5" fill="#0e0e0a" opacity="0.55"/><rect x="65" y="70" width="5" height="5" fill="#0e0e0a" opacity="0.55"/><rect x="70" y="70" width="5" height="5" fill="#0e0e0a" opacity="0.3"/><rect x="75" y="70" width="5" height="5" fill="#0e0e0a" opacity="0.85"/><rect x="80" y="70" width="5" height="5" fill="#0e0e0a" opacity="0.55"/><rect x="90" y="70" width="5" height="5" fill="#0e0e0a" opacity="0.15"/><rect x="95" y="70" width="5" height="5" fill="#0e0e0a" opacity="0.15"/><rect x="0" y="75" width="5" height="5" fill="#0e0e0a" opacity="0.15"/><rect x="5" y="75" width="5" height="5" fill="#0e0e0a" opacity="0.55"/><rect x="10" y="75" width="5" height="5" fill="#0e0e0a" opacity="0.3"/><rect x="15" y="75" width="5" height="5" fill="#0e0e0a" opacity="0.3"/><rect x="35" y="75" width="5" height="5" fill="#0e0e0a" opacity="0.55"/><rect x="50" y="75" width="5" height="5" fill="#0e0e0a" opacity="0.3"/><rect x="55" y="75" width="5" height="5" fill="#0e0e0a" opacity="0.85"/><rect x="70" y="75" width="5" height="5" fill="#0e0e0a" opacity="0.15"/><rect x="0" y="80" width="5" height="5" fill="#0e0e0a" opacity="0.15"/><rect x="5" y="80" width="5" height="5" fill="#0e0e0a" opacity="0.55"/><rect x="15" y="80" width="5" height="5" fill="#0e0e0a" opacity="0.85"/><rect x="45" y="80" width="5" height="5" fill="#0e0e0a" opacity="0.15"/><rect x="70" y="80" width="5" height="5" fill="#0e0e0a" opacity="0.85"/><rect x="75" y="80" width="5" height="5" fill="#0e0e0a" opacity="0.15"/><rect x="85" y="80" width="5" height="5" fill="#0e0e0a" opacity="0.3"/><rect x="90" y="80" width="5" height="5" fill="#0e0e0a" opacity="0.85"/><rect x="0" y="85" width="5" height="5" fill="#0e0e0a" opacity="0.85"/><rect x="10" y="85" width="5" height="5" fill="#0e0e0a" opacity="0.15"/><rect x="25" y="85" width="5" height="5" fill="#0e0e0a" opacity="0.3"/><rect x="30" y="85" width="5" height="5" fill="#0e0e0a" opacity="0.55"/><rect x="40" y="85" width="5" height="5" fill="#0e0e0a" opacity="0.85"/><rect x="45" y="85" width="5" height="5" fill="#0e0e0a" opacity="0.55"/><rect x="55" y="85" width="5" height="5" fill="#0e0e0a" opacity="0.3"/><rect x="65" y="85" width="5" height="5" fill="#0e0e0a" opacity="0.55"/><rect x="80" y="85" width="5" height="5" fill="#0e0e0a" opacity="0.3"/><rect x="85" y="85" width="5" height="5" fill="#0e0e0a" opacity="0.15"/><rect x="95" y="85" width="5" height="5" fill="#0e0e0a" opacity="0.85"/><rect x="0" y="90" width="5" height="5" fill="#0e0e0a" opacity="0.85"/><rect x="10" y="90" width="5" height="5" fill="#0e0e0a" opacity="0.3"/><rect x="15" y="90" width="5" height="5" fill="#0e0e0a" opacity="0.15"/><rect x="20" y="90" width="5" height="5" fill="#0e0e0a" opacity="0.55"/><rect x="30" y="90" width="5" height="5" fill="#0e0e0a" opacity="0.55"/><rect x="45" y="90" width="5" height="5" fill="#0e0e0a" opacity="0.85"/><rect x="50" y="90" width="5" height="5" fill="#0e0e0a" opacity="0.3"/><rect x="55" y="90" width="5" height="5" fill="#0e0e0a" opacity="0.85"/><rect x="65" y="90" width="5" height="5" fill="#0e0e0a" opacity="0.3"/><rect x="70" y="90" width="5" height="5" fill="#0e0e0a" opacity="0.85"/><rect x="75" y="90" width="5" height="5" fill="#0e0e0a" opacity="0.55"/><rect x="80" y="90" width="5" height="5" fill="#0e0e0a" opacity="0.55"/><rect x="90" y="90" width="5" height="5" fill="#0e0e0a" opacity="0.3"/><rect x="5" y="95" width="5" height="5" fill="#0e0e0a" opacity="0.55"/><rect x="10" y="95" width="5" height="5" fill="#0e0e0a" opacity="0.85"/><rect x="25" y="95" width="5" height="5" fill="#0e0e0a" opacity="0.85"/><rect x="40" y="95" width="5" height="5" fill="#0e0e0a" opacity="0.15"/><rect x="50" y="95" width="5" height="5" fill="#0e0e0a" opacity="0.3"/><rect x="55" y="95" width="5" height="5" fill="#0e0e0a" opacity="0.55"/><rect x="60" y="95" width="5" height="5" fill="#0e0e0a" opacity="0.55"/><rect x="65" y="95" width="5" height="5" fill="#0e0e0a" opacity="0.55"/><rect x="75" y="95" width="5" height="5" fill="#0e0e0a" opacity="0.15"/></svg>